<mxfile host="app.diagrams.net" modified="2022-10-08T08:34:24.551Z" agent="5.0 (Windows NT 10.0; Win64; x64) AppleWebKit/537.36 (KHTML, like Gecko) Chrome/106.0.0.0 Safari/537.36" etag="1sjNrGp09TACW1mLfWUY" version="20.4.0" type="github">
  <diagram id="0BJH3Yo5AmViALr98R4t" name="第 1 页">
    <mxGraphModel dx="782" dy="1629" grid="1" gridSize="10" guides="1" tooltips="1" connect="1" arrows="1" fold="1" page="1" pageScale="1" pageWidth="827" pageHeight="1169" math="0" shadow="0">
      <root>
        <mxCell id="0" />
        <mxCell id="1" parent="0" />
        <mxCell id="voQjO-bmPNsyEYMr9uoG-1" value="nginx" style="rounded=0;whiteSpace=wrap;html=1;" parent="1" vertex="1">
          <mxGeometry x="110" y="10" width="410" height="30" as="geometry" />
        </mxCell>
        <mxCell id="voQjO-bmPNsyEYMr9uoG-11" style="edgeStyle=orthogonalEdgeStyle;rounded=0;orthogonalLoop=1;jettySize=auto;html=1;exitX=1;exitY=1;exitDx=0;exitDy=0;exitPerimeter=0;entryX=0.398;entryY=-0.217;entryDx=0;entryDy=0;entryPerimeter=0;curved=1;" parent="1" source="voQjO-bmPNsyEYMr9uoG-4" target="voQjO-bmPNsyEYMr9uoG-1" edge="1">
          <mxGeometry relative="1" as="geometry" />
        </mxCell>
        <mxCell id="voQjO-bmPNsyEYMr9uoG-4" value="第三方服务" style="shape=umlActor;verticalLabelPosition=bottom;verticalAlign=top;html=1;" parent="1" vertex="1">
          <mxGeometry x="157" y="-120" width="30" height="60" as="geometry" />
        </mxCell>
        <mxCell id="voQjO-bmPNsyEYMr9uoG-19" value="开放平台网关" style="rounded=0;whiteSpace=wrap;html=1;verticalAlign=top;" parent="1" vertex="1">
          <mxGeometry x="110" y="50" width="410" height="190" as="geometry" />
        </mxCell>
        <mxCell id="voQjO-bmPNsyEYMr9uoG-22" value="认证" style="rounded=0;whiteSpace=wrap;html=1;" parent="1" vertex="1">
          <mxGeometry x="130" y="80" width="120" height="60" as="geometry" />
        </mxCell>
        <mxCell id="voQjO-bmPNsyEYMr9uoG-23" value="鉴权" style="rounded=0;whiteSpace=wrap;html=1;" parent="1" vertex="1">
          <mxGeometry x="260" y="80" width="120" height="60" as="geometry" />
        </mxCell>
        <mxCell id="voQjO-bmPNsyEYMr9uoG-24" value="数据签名" style="rounded=0;whiteSpace=wrap;html=1;" parent="1" vertex="1">
          <mxGeometry x="130" y="150" width="120" height="60" as="geometry" />
        </mxCell>
        <mxCell id="voQjO-bmPNsyEYMr9uoG-29" value="接口路由" style="rounded=0;whiteSpace=wrap;html=1;" parent="1" vertex="1">
          <mxGeometry x="260" y="150" width="120" height="60" as="geometry" />
        </mxCell>
        <mxCell id="voQjO-bmPNsyEYMr9uoG-30" value="系统服务" style="rounded=0;whiteSpace=wrap;html=1;verticalAlign=top;" parent="1" vertex="1">
          <mxGeometry x="110" y="250" width="410" height="180" as="geometry" />
        </mxCell>
        <mxCell id="voQjO-bmPNsyEYMr9uoG-31" value="用户服务" style="rounded=0;whiteSpace=wrap;html=1;" parent="1" vertex="1">
          <mxGeometry x="141" y="280" width="110" height="60" as="geometry" />
        </mxCell>
        <mxCell id="voQjO-bmPNsyEYMr9uoG-32" value="平台服务" style="rounded=0;whiteSpace=wrap;html=1;" parent="1" vertex="1">
          <mxGeometry x="257" y="280" width="110" height="60" as="geometry" />
        </mxCell>
        <mxCell id="voQjO-bmPNsyEYMr9uoG-33" value="日志服务" style="rounded=0;whiteSpace=wrap;html=1;" parent="1" vertex="1">
          <mxGeometry x="372" y="280" width="108" height="60" as="geometry" />
        </mxCell>
        <mxCell id="voQjO-bmPNsyEYMr9uoG-35" value="消息服务" style="rounded=0;whiteSpace=wrap;html=1;" parent="1" vertex="1">
          <mxGeometry x="372" y="350" width="110" height="60" as="geometry" />
        </mxCell>
        <mxCell id="voQjO-bmPNsyEYMr9uoG-42" value="调用统计" style="rounded=0;whiteSpace=wrap;html=1;" parent="1" vertex="1">
          <mxGeometry x="385" y="80" width="120" height="60" as="geometry" />
        </mxCell>
        <mxCell id="voQjO-bmPNsyEYMr9uoG-43" value="文件服务" style="rounded=0;whiteSpace=wrap;html=1;" parent="1" vertex="1">
          <mxGeometry x="257" y="350" width="110" height="60" as="geometry" />
        </mxCell>
        <mxCell id="TRtnPMHqwTVM1jrqpF8s-23" value="四方对接服务" style="rounded=0;whiteSpace=wrap;html=1;" vertex="1" parent="1">
          <mxGeometry x="141" y="350" width="110" height="60" as="geometry" />
        </mxCell>
        <mxCell id="TRtnPMHqwTVM1jrqpF8s-26" style="edgeStyle=orthogonalEdgeStyle;curved=1;rounded=0;orthogonalLoop=1;jettySize=auto;html=1;exitX=0;exitY=1;exitDx=0;exitDy=0;exitPerimeter=0;entryX=0.641;entryY=-0.033;entryDx=0;entryDy=0;entryPerimeter=0;" edge="1" parent="1" source="TRtnPMHqwTVM1jrqpF8s-25" target="voQjO-bmPNsyEYMr9uoG-1">
          <mxGeometry relative="1" as="geometry" />
        </mxCell>
        <mxCell id="TRtnPMHqwTVM1jrqpF8s-25" value="第四方服务" style="shape=umlActor;verticalLabelPosition=bottom;verticalAlign=top;html=1;" vertex="1" parent="1">
          <mxGeometry x="420" y="-120" width="30" height="60" as="geometry" />
        </mxCell>
        <mxCell id="TRtnPMHqwTVM1jrqpF8s-27" value="安全校验" style="rounded=0;whiteSpace=wrap;html=1;" vertex="1" parent="1">
          <mxGeometry x="385" y="150" width="120" height="60" as="geometry" />
        </mxCell>
      </root>
    </mxGraphModel>
  </diagram>
</mxfile>
